PathFileType	3	(X/Y/Z)	D:\VICON_DB\Goncalves\Pilot01\09-03-2026\static_01.trc
DataRate	CameraRate	NumFrames	NumMarkers	Units	OrigDataRate	OrigDataStartFrame	OrigNumFrames
200.0	200.0	11	34	mm	200.0	1	321	
Frame#	Time	LASI			RASI			LPSI			RPSI			LTHI			LTHAP			LTHAD			LKNE			LKNM			LTIB			LTIAP			LTIAD			LANK			LMED			LHEE			LTOE			LFMH			LSMH			LVMH			RTHI			RTHAP			RTHAD			RKNE			RKNM			RTIB			RTIAP			RTIAD			RANK			RMED			RHEE			RTOE			RFMH			RSMH			RVMH			
		X1	Y1	Z1	X2	Y2	Z2	X3	Y3	Z3	X4	Y4	Z4	X5	Y5	Z5	X6	Y6	Z6	X7	Y7	Z7	X8	Y8	Z8	X9	Y9	Z9	X10	Y10	Z10	X11	Y11	Z11	X12	Y12	Z12	X13	Y13	Z13	X14	Y14	Z14	X15	Y15	Z15	X16	Y16	Z16	X17	Y17	Z17	X18	Y18	Z18	X19	Y19	Z19	X20	Y20	Z20	X21	Y21	Z21	X22	Y22	Z22	X23	Y23	Z23	X24	Y24	Z24	X25	Y25	Z25	X26	Y26	Z26	X27	Y27	Z27	X28	Y28	Z28	X29	Y29	Z29	X30	Y30	Z30	X31	Y31	Z31	X32	Y32	Z32	X33	Y33	Z33	X34	Y34	Z34	
1	0	117.50891	903.41486	-1064.2217	111.63557	904.38971	-1329.6801	307.26199	960.37408	-1171.0601	306.74609	954.62109	-1231.2548	124.30375	693.88666	-1032.3438	141.8736	767.70935	-1018.9124	168.45058	629.86426	-1008.4429	220.84282	474.67236	-1025.0277	197.06578	464.55728	-1153.1531	258.0965	281.60349	-1005.1964	200.62254	357.08887	-1060.3691	216.24342	254.7402	-1032.7908	272.93042	70.421844	-1027.2439	239.0871	80.915634	-1108.277	314.90207	61.914459	-1080.869	191.09549	71.657593	-1047.6858	133.92628	44.779858	-1072.9683	133.62305	39.177475	-1032.7572	149.99857	24.777773	-993.99561	156.56349	625.91205	-1381.3427	119.46122	751.84918	-1358.0707	103.65983	659.90179	-1335.8784	205.85117	490.48297	-1364.9978	204.4507	434.11984	-1244.7463	226.32799	296.22253	-1383.3313	186.93889	346.22305	-1328.4364	192.41887	264.83008	-1331.161	269.00397	61.959827	-1355.6215	233.6624	89.728828	-1276.0582	305.04041	58.032074	-1314.0854	176.56885	68.987373	-1340.2915	126.09859	49.256615	-1315.1088	123.81571	40.479546	-1351.301	139.80667	20.567457	-1388.92
2	0.005	117.57093	903.42236	-1064.295	111.72472	904.41394	-1329.7174	307.14001	960.38306	-1171.5502	306.79178	954.60968	-1231.3267	124.33426	693.90863	-1032.4069	141.92638	767.72516	-1018.9819	168.49306	629.8822	-1008.4899	220.84598	474.69324	-1025.0811	197.08833	464.55203	-1153.1769	258.09174	281.62262	-1005.2074	200.6288	357.09064	-1060.4161	216.24742	254.75577	-1032.828	272.95688	70.414116	-1027.2671	239.09633	80.890144	-1108.276	314.91315	61.912815	-1080.877	191.11925	71.668777	-1047.6526	133.92632	44.781487	-1072.981	133.61481	39.184341	-1032.7798	149.99928	24.789013	-994.00824	156.63818	625.92712	-1381.4022	119.55399	751.83728	-1358.1035	103.74692	659.91644	-1335.903	205.89133	490.4809	-1365.0321	204.4366	434.11411	-1244.7787	226.35959	296.22153	-1383.3813	186.97325	346.22684	-1328.4536	192.43477	264.84705	-1331.1948	269.00354	61.955242	-1355.653	232.94235	90.66272	-1275.3082	305.03256	58.036339	-1314.1135	176.58682	68.987526	-1340.2877	126.10984	49.256664	-1315.1268	123.81236	40.476158	-1351.292	139.84698	20.496565	-1388.9052
3	0.01	117.63476	903.44269	-1064.3685	111.79891	904.43079	-1329.7782	306.37601	960.26001	-1172.46	306.89618	954.61139	-1231.3794	124.37309	693.91254	-1032.4722	141.98235	767.73053	-1019.0481	168.53157	629.89978	-1008.5418	220.86794	474.70886	-1025.1266	197.10982	464.54172	-1153.2183	258.10718	281.63696	-1005.237	200.63687	357.1008	-1060.4329	216.26137	254.76405	-1032.855	273.17368	70.35952	-1027.4166	239.10457	80.898804	-1108.2773	314.90524	61.912605	-1080.8835	191.09058	71.662628	-1047.7184	133.92537	44.784454	-1072.999	133.63417	39.198753	-1032.7766	150.00368	24.802114	-994.01324	156.67889	625.94165	-1381.474	119.80664	751.87305	-1357.9875	103.97368	659.86938	-1335.7163	205.9377	490.49484	-1365.0916	204.54958	434.12274	-1244.801	226.38882	296.20395	-1383.3929	187.01553	346.23154	-1328.4817	192.43393	264.85443	-1331.2446	269.03052	62.089478	-1355.8514	232.92754	90.588615	-1275.3416	305.04431	58.041336	-1314.1229	176.59447	68.990662	-1340.3126	126.11553	49.260971	-1315.1272	123.80618	40.483269	-1351.3075	139.80215	20.574949	-1388.9302
4	0.015	117.6953	903.44214	-1064.4326	111.89564	904.42719	-1329.818	307.06601	960.42407	-1171.99	306.9469	954.60065	-1231.4406	124.43188	693.92889	-1032.5297	142.02641	767.75714	-1019.1258	168.56932	629.9281	-1008.5943	220.89799	474.71893	-1025.1631	197.14032	464.53973	-1153.2417	258.10541	281.65295	-1005.2578	200.64526	357.11569	-1060.4703	216.26544	254.77568	-1032.8771	273.15384	70.394867	-1027.4381	239.10356	80.913094	-1108.2946	314.91693	61.908432	-1080.8759	191.12389	71.684319	-1047.6863	133.93216	44.80378	-1072.9888	133.6261	39.210991	-1032.7919	149.99876	24.811464	-994.02557	156.72929	625.96075	-1381.5677	119.67417	751.92065	-1358.2942	104.04256	659.90509	-1335.7793	205.97929	490.5015	-1365.1404	204.58244	434.15375	-1244.8479	226.40594	296.23578	-1383.4598	187.05186	346.24368	-1328.4993	192.4856	264.86966	-1331.2504	269.03458	62.073967	-1355.8695	232.92389	90.403282	-1275.415	305.03992	58.027367	-1314.1317	176.60828	68.974205	-1340.3046	126.10374	49.268929	-1315.1469	123.81119	40.498749	-1351.3286	139.81877	20.57184	-1388.9417
5	0.02	117.74853	903.46234	-1064.5149	111.9175	904.50903	-1329.9905	306.832	960.16809	-1171.65	307.02457	954.58685	-1231.486	124.47786	693.94391	-1032.5814	142.07727	767.76508	-1019.1883	168.61017	629.94159	-1008.6428	220.9313	474.73651	-1025.1952	197.13368	464.54318	-1153.3054	258.13101	281.66772	-1005.2642	200.64554	357.11133	-1060.5051	216.27525	254.7901	-1032.9117	272.94864	70.497177	-1027.3333	239.44263	80.910934	-1108.0009	314.90598	61.9146	-1080.8732	191.04926	71.819603	-1047.6555	133.93456	44.811604	-1073.0067	133.63979	39.203308	-1032.803	149.9539	24.874907	-993.94397	156.56601	626.34137	-1381.8263	119.80765	751.90479	-1358.3124	103.92687	659.99237	-1336.1055	206.01323	490.51086	-1365.2064	204.66965	434.13931	-1244.8713	226.44524	296.21283	-1383.4819	187.06137	346.26144	-1328.5692	192.63379	264.84872	-1331.328	269.04507	62.06395	-1355.8489	232.97462	90.62429	-1275.3622	305.03497	58.026413	-1314.1493	176.58492	69.006081	-1340.3387	126.11952	49.26968	-1315.1394	123.82022	40.499714	-1351.326	139.80931	20.57189	-1388.9298
6	0.025	117.79369	903.46167	-1064.5774	111.99953	904.5332	-1330.0706	307.77301	960.37604	-1171.38	307.10788	954.58276	-1231.5394	124.5304	693.95953	-1032.6245	142.13222	767.77826	-1019.2344	168.64465	629.94708	-1008.7049	220.9451	474.73929	-1025.2327	197.1631	464.54297	-1153.3348	258.14471	281.67535	-1005.2648	200.64612	357.13513	-1060.5385	216.29395	254.78923	-1032.9316	272.95886	70.438339	-1027.3417	239.12279	80.917137	-1108.2681	314.89484	61.917553	-1080.8905	191.12718	71.707527	-1047.7136	133.93791	44.812584	-1073.0164	133.6521	39.21109	-1032.8026	149.90018	24.943731	-993.8476	156.82669	626.0213	-1381.7112	119.87263	751.93488	-1358.3997	104.1576	659.94598	-1335.9277	206.06815	490.50845	-1365.2678	204.56024	434.21622	-1244.9617	226.45618	296.19629	-1383.5027	187.09659	346.24496	-1328.5885	192.67639	264.8548	-1331.3406	269.02005	61.936821	-1355.6741	232.95963	90.591148	-1275.3965	305.0408	58.039097	-1314.158	176.59526	69.001389	-1340.3418	126.10747	49.275593	-1315.1628	123.81364	40.503773	-1351.3281	139.814	20.574038	-1388.9484
7	0.03	117.84657	903.48041	-1064.6465	112.10732	904.55249	-1330.1201	308.06104	960.31207	-1171.2701	307.20233	954.58722	-1231.5685	124.573	693.98749	-1032.6837	142.17587	767.77673	-1019.3036	168.6794	629.95654	-1008.7484	220.96605	474.73746	-1025.2794	197.20418	464.54471	-1153.3536	258.16238	281.66687	-1005.2784	200.66829	357.14008	-1060.5753	216.30217	254.79335	-1032.9556	272.95157	70.484001	-1027.3257	239.14684	80.907631	-1108.2587	314.90479	61.904179	-1080.895	191.08713	71.776192	-1047.6991	133.92891	44.821182	-1073.0293	133.65337	39.215061	-1032.8103	149.24971	25.572012	-992.9657	156.87827	626.05536	-1381.7942	119.95988	751.93439	-1358.4733	104.21675	659.96613	-1335.989	206.11453	490.53879	-1365.324	204.71655	434.16403	-1244.9988	226.4742	296.21295	-1383.5371	187.13837	346.26678	-1328.6453	192.69897	264.87634	-1331.3661	269.02448	61.926079	-1355.6995	232.95334	90.619156	-1275.3923	305.03616	58.049652	-1314.167	176.58574	69.009727	-1340.3593	126.11935	49.27634	-1315.1633	123.81499	40.513584	-1351.3424	139.82413	20.508341	-1388.9465
8	0.035	117.89642	903.47852	-1064.708	112.18237	904.6084	-1330.231	308.16	960.33704	-1171.0699	307.259	954.58936	-1231.6249	124.61727	694.00031	-1032.7362	142.21309	767.77832	-1019.3649	168.70467	629.97119	-1008.7924	220.97195	474.74231	-1025.3239	197.21115	464.55066	-1153.3936	258.17346	281.67383	-1005.2794	200.67368	357.12766	-1060.605	216.3185	254.79138	-1032.9568	273.00693	70.522499	-1027.3958	239.15579	80.898827	-1108.2445	314.89954	61.905556	-1080.8928	191.12801	71.768021	-1047.656	133.93558	44.819954	-1073.0309	133.65836	39.21534	-1032.8088	149.26564	25.549133	-992.99194	156.90384	626.10303	-1381.9044	120.03629	751.95825	-1358.5537	104.27806	659.98615	-1336.0702	206.15538	490.55127	-1365.3752	204.77702	434.0892	-1245.0521	226.51663	296.19052	-1383.5629	187.1741	346.26196	-1328.6854	192.71674	264.8829	-1331.4069	269.02136	61.929585	-1355.7024	232.95276	90.661751	-1275.3876	305.04913	58.043392	-1314.1455	176.60628	68.985687	-1340.325	126.12015	49.280769	-1315.178	123.82175	40.511776	-1351.3356	139.75517	20.583242	-1388.9799
9	0.04	117.93554	903.48346	-1064.78	112.28468	904.61627	-1330.2688	308.24304	960.32404	-1170.99	307.30905	954.58636	-1231.6816	124.6534	694.013	-1032.8052	142.25999	767.7774	-1019.4565	168.73018	629.96918	-1008.8361	220.9973	474.72906	-1025.3652	197.22153	464.55316	-1153.4406	258.17996	281.66766	-1005.2745	200.67331	357.12482	-1060.6169	216.32851	254.7968	-1032.9702	272.98846	70.420425	-1027.3229	239.157	80.897354	-1108.2433	314.89822	61.897251	-1080.8915	191.10844	71.805351	-1047.655	133.93158	44.836407	-1073.0328	133.65715	39.217308	-1032.7996	149.25047	25.565536	-992.96826	156.79251	626.40863	-1382.1371	120.08819	751.98035	-1358.6735	104.35941	659.9989	-1336.1472	206.19688	490.56433	-1365.4214	204.82202	434.16476	-1245.1088	226.53386	296.21436	-1383.6259	187.2083	346.26132	-1328.7312	192.75432	264.88513	-1331.4196	269.02484	61.940315	-1355.7189	232.94667	90.631516	-1275.4042	305.0509	58.025227	-1314.1553	176.5974	68.994736	-1340.3541	126.12967	49.270302	-1315.1663	123.82877	40.517956	-1351.3271	139.75565	20.601946	-1388.9812
10	0.045	117.99146	903.48096	-1064.8392	112.40452	904.64264	-1330.3066	308.17499	960.29608	-1171.34	307.37613	954.6106	-1231.7266	124.71239	694.00818	-1032.8451	142.30319	767.78662	-1019.5125	168.77887	629.96692	-1008.885	221.01183	474.72366	-1025.399	197.26218	464.55493	-1153.4537	258.19669	281.64954	-1005.2863	200.6864	357.11581	-1060.6484	216.3398	254.78712	-1032.9783	272.90851	70.490952	-1027.3423	239.16501	80.909851	-1108.235	314.89996	61.889698	-1080.87	191.10286	71.770638	-1047.6584	133.92444	44.836445	-1073.0366	133.6601	39.208248	-1032.8029	149.23772	25.577387	-992.95026	157.04071	626.13354	-1382.0629	120.22238	751.96906	-1358.6962	104.43394	660.01361	-1336.2166	206.25096	490.57336	-1365.4808	204.78397	434.21851	-1245.1351	226.5715	296.20151	-1383.6488	187.22922	346.27628	-1328.7689	192.79323	264.89264	-1331.448	269.02356	61.948212	-1355.726	232.94057	90.650902	-1275.4093	305.04691	58.028107	-1314.1605	176.60684	68.988647	-1340.3405	126.10745	49.276466	-1315.1964	123.82952	40.515884	-1351.3319	139.7343	20.605356	-1388.9882
11	0.05	118.03854	903.47101	-1064.9182	112.46173	904.66864	-1330.42	307.72803	960.17206	-1171.72	307.44049	954.61682	-1231.7717	124.77026	694.00726	-1032.8997	142.3456	767.77228	-1019.5909	168.79349	629.96747	-1008.9304	221.02469	474.71799	-1025.4325	197.26799	464.54849	-1153.5146	258.19998	281.63641	-1005.2916	200.69757	357.13181	-1060.6375	216.33974	254.79147	-1033.01	272.97049	70.399475	-1027.3433	239.40413	80.907181	-1108.0402	314.89978	61.876644	-1080.8732	191.09555	71.770035	-1047.6558	133.9324	44.833672	-1073.0354	133.65648	39.201389	-1032.8093	149.23276	25.565315	-992.95184	157.09859	626.15204	-1382.1512	120.29804	751.97791	-1358.8059	104.40683	660.0675	-1336.4941	206.29848	490.56302	-1365.5477	204.87247	434.21674	-1245.1658	226.59363	296.18002	-1383.6755	187.28619	346.25543	-1328.7969	192.80217	264.88654	-1331.4708	269.04904	62.029415	-1355.8782	232.93018	90.684105	-1275.4135	305.06097	58.01823	-1314.1538	176.59447	68.995491	-1340.3531	126.09598	49.286873	-1315.2092	123.83018	40.532669	-1351.3446	139.73323	20.602924	-1388.9958
